<svg width="269" height="105" viewBox="0 0 269 105" fill="none" xmlns="http://www.w3.org/2000/svg">
<path fill-rule="evenodd" clip-rule="evenodd" d="M29.4589 1.07183C27.2691 1.74951 25.1543 3.89915 24.4144 6.19982C23.9352 7.68959 23.8648 8.7325 23.979 12.6451C24.1743 19.3479 24.6953 20.5215 30.8208 28.0641C32.7361 30.4224 34.7517 33.2291 35.3 34.3015C36.2369 36.1341 36.2976 36.4573 36.3118 39.6931C36.3301 43.8902 35.9318 44.7849 34.048 44.7775C31.6781 44.7681 31.4598 44.1748 31.4598 37.7434V32.5055H27.3701H23.2802V38.1684C23.2802 46.0359 23.8485 48.2361 26.4386 50.3991C28.2761 51.9336 30.8932 52.569 34.6552 52.3944C42.2986 52.0393 45.3574 47.7599 44.9032 38.0572C44.6219 32.0503 43.8536 30.4494 37.3538 22.3255C32.5479 16.3193 32.2891 15.8156 32.1394 12.1823C31.9915 8.59041 32.3937 7.64203 34.0625 7.6497C34.6209 7.65246 35.2573 7.7657 35.4766 7.90168C36.1885 8.34241 36.4933 10.1744 36.4933 14.0115V17.7734H40.2685H44.0438V12.3848C44.0438 6.3364 43.7769 4.83772 42.4125 3.22302C40.7203 1.22007 39.3971 0.770747 34.9203 0.679285C32.0559 0.620664 30.5725 0.727164 29.4589 1.07183ZM0 26.367V51.8412H3.93247H7.86495V40.7923V29.7431H10.539H13.2131V40.7923V51.8412H17.3047H21.3964L21.3159 26.4439L21.2353 1.04636L17.2243 0.960421L13.2131 0.874485V11.178V21.4813L10.6177 21.392L8.02224 21.3029L7.93951 11.0979L7.85644 0.892899H3.92838H0V26.367ZM47.0848 1.09761C46.9694 1.20995 46.875 12.6733 46.875 26.5718V51.8412H56.1557H65.4363V48.0048V44.1684H60.2455H55.0546V36.8023V29.4363H58.9871H62.9196V25.5998V21.7633H58.9871H55.0546V15.1646V8.56585H60.0881H65.1217V4.72938V0.892899H56.2082C51.3055 0.892899 47.2001 0.984975 47.0848 1.09761ZM79.1523 1.73692C79.0553 2.20099 78.6951 4.85982 78.3522 7.64509C77.4861 14.6757 75.7356 28.6503 74.2435 40.4448C73.5523 45.9085 72.9866 50.7081 72.9866 51.1102C72.9866 51.8376 73.0052 51.8412 76.5599 51.8412H80.1334L80.5062 48.0815C80.7114 46.0135 80.9595 43.8728 81.0577 43.3243L81.2365 42.3268H83.9677H86.6993L87.0933 46.2401C87.3097 48.3922 87.5626 50.5332 87.6548 50.9973L87.8228 51.8412H91.6867C95.5173 51.8412 95.5496 51.8354 95.438 51.1507C95.3763 50.771 93.9113 39.7564 92.1825 26.674C90.4538 13.5916 88.9605 2.43915 88.8638 1.89038L88.6879 0.892899H84.0082H79.3287L79.1523 1.73692ZM96.5816 26.3394V51.8412H100.671H104.761V40.443V29.0449L106.57 29.2521C107.565 29.366 108.591 29.6659 108.851 29.9184C109.244 30.3017 109.349 32.0678 109.484 40.5724C109.573 46.1796 109.765 51.0087 109.911 51.3042C110.144 51.775 110.682 51.8412 114.266 51.8412C118.034 51.8412 118.339 51.7989 118.14 51.3042C117.538 49.8085 117.348 46.5272 117.347 37.6113C117.345 28.3031 117.314 27.7774 116.696 26.7054C116.339 26.0859 115.649 25.318 115.163 24.9995L114.279 24.42L115.228 23.6413C117.136 22.0748 117.331 21.1378 117.336 13.4765C117.339 9.65019 117.197 6.06201 117.017 5.42945C116.57 3.86018 115.278 2.45572 113.58 1.69426C112.282 1.11204 111.455 1.04513 104.368 0.946303L96.5816 0.837962V26.3394ZM118.918 4.72938V8.56585H122.221H125.524V30.2036V51.8412H129.457H133.389V30.2036V8.56585H136.693H139.996V4.72938V0.892899H129.457H118.918V4.72938ZM153.679 1.27655C153.602 1.48771 153.108 5.11302 152.579 9.33314C152.051 13.5533 151.273 19.7683 150.849 23.1444C150.425 26.5205 149.513 33.8405 148.822 39.411C148.13 44.9817 147.488 50.0574 147.394 50.6903L147.224 51.8412H150.846C152.838 51.8412 154.481 51.7375 154.497 51.611C154.514 51.4846 154.761 49.3782 155.047 46.9305L155.568 42.4803L158.293 42.3919L161.019 42.3039L161.188 43.1592C161.282 43.63 161.526 45.776 161.73 47.9281L162.102 51.8412H165.993C169.281 51.8412 169.883 51.7686 169.883 51.3698C169.883 51.1105 169.181 45.6894 168.322 39.3232C167.464 32.9569 165.964 21.8097 164.989 14.5514C164.015 7.29306 163.151 1.25077 163.071 1.1237C162.991 0.996638 160.876 0.892899 158.372 0.892899C155.013 0.892899 153.782 0.993569 153.679 1.27655ZM171.141 26.367V51.8412H174.756H178.37L178.453 38.0376L178.535 24.234L180.162 30.4414C181.057 33.8556 182.669 40.067 183.745 44.245L185.701 51.8412H188.961H192.22V26.367V0.892899H188.601H184.983L184.955 14.0136L184.929 27.1343L183.896 23.1444C183.329 20.95 181.841 15.0458 180.59 10.0237L178.313 0.892899H174.727H171.141V26.367ZM195.051 26.3582V51.8802L202.837 51.7839L210.624 51.6879L212.143 50.8168C213.944 49.783 215.325 47.8222 215.823 45.587C216.064 44.5001 216.141 38.2377 216.072 25.2929L215.972 6.57088L215.188 5.07466C214.293 3.3639 212.851 2.08834 211.162 1.5095C210.381 1.24248 207.514 1.06447 202.522 0.973005L195.051 0.836427V26.3582ZM108.822 8.71347C109.244 9.12536 109.323 10.0986 109.323 14.8963C109.323 20.5102 109.312 20.5986 108.58 21.1768C108.075 21.5755 107.345 21.7633 106.299 21.7633H104.761V14.8147V7.86608L106.541 8.04531C107.531 8.14507 108.544 8.44186 108.822 8.71347ZM206.326 8.28778C207.07 8.54068 207.394 8.89917 207.648 9.74564C207.872 10.4954 207.951 16.1866 207.888 26.8959C207.794 42.5852 207.779 42.9373 207.147 43.5532C206.74 43.9498 205.896 44.2527 204.866 44.3718L203.23 44.5609V26.2563V7.952H204.285C204.864 7.952 205.782 8.10301 206.326 8.28778ZM84.7684 25.2929C85.2107 29.3442 85.6493 33.1079 85.7431 33.6564L85.9138 34.6538H83.9108H81.908L82.132 32.7356C82.2551 31.6807 82.6814 27.7882 83.0787 24.0854C83.4764 20.3828 83.8384 17.4824 83.8831 17.6402C83.9282 17.7979 84.3264 21.2415 84.7684 25.2929ZM160.11 33.8099C160.13 34.6406 160.101 34.6538 158.207 34.6538H156.284L156.466 33.3494C156.566 32.6319 156.945 29.2137 157.308 25.7532C157.671 22.2928 158.054 19.1161 158.158 18.6942C158.321 18.0327 160.053 31.4429 160.11 33.8099ZM51.9087 52.3272C47.0595 53.1644 44.7704 55.4331 44.0176 60.1482C43.6429 62.4965 43.8141 66.8068 44.3804 69.2757C44.9434 71.7319 46.63 74.5034 50.5234 79.3718C52.6564 82.039 54.7964 84.9117 55.2786 85.7557C56.1142 87.2176 56.1557 87.4818 56.1557 91.3241C56.1557 94.8601 56.0817 95.4378 55.5563 96.0046C54.6816 96.9486 53.0742 96.8697 52.2463 95.8426C51.6434 95.0949 51.594 94.6315 51.594 89.7041V84.3746H47.4776H43.3613L43.4686 91.05C43.5683 97.2396 43.6287 97.8372 44.2988 99.2601C45.578 101.977 47.3558 103.311 50.5871 103.98C53.6103 104.605 57.3387 104.284 59.6877 103.196C63.6045 101.383 65.4691 96.4018 64.966 89.0944C64.5964 83.7248 63.8391 82.2163 57.4587 74.1397C55.6124 71.8023 53.7531 69.3101 53.3278 68.6014C51.8661 66.1687 51.68 60.5786 53.028 59.6167C53.7723 59.0857 54.7778 59.0959 55.5451 59.6422C56.0903 60.0305 56.1724 60.5805 56.3131 64.783L56.4703 69.489L60.3241 69.5753L64.178 69.6616L64.1703 64.3577C64.166 61.4404 64.0169 58.4323 63.8388 57.6727C63.2703 55.2466 61.5318 53.4353 59.1124 52.7488C57.8963 52.4038 53.0931 52.1224 51.9087 52.3272ZM85.2309 52.4379C81.4314 53.1189 78.8665 55.6913 78.02 59.6695C77.795 60.7265 77.7123 67.4449 77.7727 79.7979C77.8706 99.8895 77.7676 98.7033 79.6518 101.455C80.8337 103.18 83.1916 104.324 85.5678 104.324C87.913 104.324 90.2782 102.978 91.8887 100.725L93.0354 99.1213L93.6288 101.339L94.2221 103.557L96.5029 103.647L98.7837 103.737V88.2245V72.7117H93.2783H87.7729V76.7016V80.6915H89.5031H91.2334V87.464C91.2334 94.3215 91.1183 95.1152 90.0023 95.9509C89.2284 96.5306 87.5375 96.4217 86.8466 95.7477C86.5099 95.4193 86.1492 94.6944 86.0443 94.1364C85.94 93.5784 85.8965 85.8929 85.9484 77.0579L86.0425 60.9942L86.7852 60.4077C87.8568 59.5615 89.1649 59.6533 89.9521 60.6299C90.5319 61.349 90.6041 61.8591 90.6041 65.2336V69.0287H94.5723H98.5405L98.405 63.7343C98.2998 59.633 98.148 58.1672 97.7302 57.2289C96.2402 53.88 93.9864 52.5395 89.4751 52.3176C87.9332 52.2418 86.0233 52.2958 85.2309 52.4379ZM139.832 52.432C136.732 52.9143 134.615 54.4718 133.336 57.2123C132.273 59.4902 132.117 65.7842 133.036 69.33C133.879 72.581 134.753 74.0201 139.381 79.7709C144.18 85.736 144.772 86.9079 144.952 90.802C145.117 94.3929 144.661 96.0334 143.378 96.4733C142.231 96.8661 140.908 96.3974 140.401 95.4184C140.131 94.8981 140.004 93.025 140.001 89.5154L139.996 84.3746H135.906H131.816V89.6891C131.816 95.7293 132.146 98.0082 133.326 100.134C134.704 102.617 137.143 103.894 141.136 104.223C147.548 104.752 151.676 102.13 153.051 96.6543C153.492 94.8997 153.571 93.5934 153.45 90.1089C153.226 83.6842 152.736 82.6158 146.304 74.5532C141.234 68.1963 140.782 67.2847 140.782 63.401C140.782 60.5985 140.836 60.3398 141.525 59.7948C142.465 59.0516 143.189 59.0513 144.13 59.7933C144.842 60.3551 144.876 60.5709 144.974 65.0204L145.075 69.661L148.906 69.575L152.737 69.489L152.718 63.8111C152.701 58.5987 152.641 58.0035 151.985 56.5519C151.132 54.6643 150.374 53.9182 148.478 53.1003C146.845 52.395 142.319 52.0454 139.832 52.432ZM163.277 52.3401C159.786 52.9999 157.785 54.459 156.383 57.3658L155.568 59.0539V78.2672V97.4805L156.672 99.598C158.547 103.194 161.509 104.526 167.061 104.267C171.654 104.053 174.094 102.481 175.634 98.7411C176.244 97.2577 176.316 96.4036 176.424 89.2086L176.544 81.3054H172.61H168.677L168.572 88.238L168.468 95.1707L167.584 95.911C165.97 97.2651 164.147 96.5672 163.752 94.4433C163.647 93.8854 163.604 86.1574 163.655 77.2707C163.744 61.8818 163.776 61.0822 164.348 60.4669C164.992 59.7714 166.388 59.617 167.373 60.1317C168.317 60.6243 168.62 62.3977 168.623 67.4174L168.625 72.0979H172.587H176.552L176.43 65.4223C176.318 59.2171 176.258 58.6324 175.569 57.124C174.686 55.1864 172.646 53.3299 170.812 52.7939C169.412 52.3848 164.579 52.0936 163.277 52.3401ZM210.441 52.4379C206.269 53.1855 203.725 56.0004 202.937 60.7437C202.509 63.3197 202.502 92.6608 202.927 95.577C203.499 99.4841 205.846 102.726 208.79 103.674C210.939 104.365 215.46 104.468 217.556 103.874C221.055 102.881 222.789 101.129 223.939 97.4186C224.566 95.3941 224.873 65.5246 224.311 61.3922C223.699 56.9097 222.106 54.4577 218.912 53.0828C217.238 52.3624 212.764 52.0217 210.441 52.4379ZM234.645 52.4413C230.573 53.1671 228.157 55.6544 227.153 60.1505C226.884 61.3539 226.809 66.6292 226.881 79.1569C226.975 95.1238 227.028 96.6175 227.563 98.007C229.38 102.73 232.806 104.621 238.87 104.252C243.145 103.992 245.629 102.575 247.234 99.4817C248.439 97.157 248.533 95.6108 248.533 78.0351C248.533 63.5796 248.458 60.7026 248.041 59.1358C247.208 55.9954 245.548 54.0152 242.956 53.0692C241.039 52.3698 236.831 52.0519 234.645 52.4413ZM0 78.2408V103.759L7.4717 103.658C14.559 103.562 15.0202 103.52 16.4381 102.839C18.1938 101.995 19.5834 100.46 20.3564 98.5099C20.8575 97.2448 20.9208 95.4175 21.0183 79.3104C21.095 66.6421 21.0198 60.9091 20.7571 59.4279C20.2701 56.6817 18.9488 54.7477 16.8408 53.6957C15.3127 52.933 15.106 52.9134 7.63875 52.8191L0 52.7224V78.2408ZM23.5948 78.2361V103.71H32.8755H42.1561V99.7204V95.7305H36.9652H31.7744V88.518V81.3054H35.7069H39.6394V77.3154V73.3255H35.7069H31.7744V66.8802V60.435H36.808H41.8415V56.5985V52.762H32.7182H23.5948V78.2361ZM67.0093 78.2361V103.71H71.0992H75.1889V78.2361V52.762H71.0992H67.0093V78.2361ZM101.377 78.1595L101.458 103.557L105.154 103.644L108.851 103.73L108.88 89.8321L108.908 75.9343L112.003 87.9042C113.706 94.4874 115.337 100.737 115.628 101.792L116.157 103.71H119.425H122.693V78.2361V52.762H119.075H115.457L115.425 65.8828C115.396 77.2335 115.336 78.8172 114.98 77.6224C114.753 76.8627 113.253 70.9582 111.646 64.5015L108.724 52.762H105.011H101.297L101.377 78.1595ZM178.691 78.2361V103.71H182.782H186.87V92.5079V81.3054H189.545H192.22V92.5079V103.71H196.152H200.084V78.2361V52.762H196.152H192.22V62.8903V73.0186H189.545H186.87V62.8903V52.762H182.782H178.691V78.2361ZM251.049 78.2411V103.72L259.937 103.639L268.823 103.557L268.912 99.6437L269 95.7305H264.115H259.228V74.2462V52.762H255.14H251.049V78.2411ZM12.0799 60.841C12.7324 61.696 12.7412 61.925 12.7412 77.9293C12.7412 93.9335 12.7324 94.1625 12.0799 95.0175C11.5111 95.7628 11.1701 95.8969 9.64179 95.9761L7.86495 96.0681V77.9293V59.7904L9.64179 59.8825C11.1701 59.9618 11.5111 60.0959 12.0799 60.841ZM215.357 60.6332L216.128 61.4453V77.9541C216.128 87.6638 216.005 94.7794 215.829 95.2315C215.177 96.9051 212.61 97.0601 211.519 95.4921C210.977 94.7143 210.931 93.6564 210.835 80.2312C210.715 63.5971 210.824 61.5929 211.898 60.5442C212.919 59.5492 214.362 59.5864 215.357 60.6332ZM239.083 60.1215C240.275 60.7443 240.352 61.8704 240.348 78.3587C240.343 95.5274 240.352 95.4304 238.718 96.3251C237.538 96.9711 236.26 96.4819 235.552 95.1133C235.04 94.1244 235.003 92.7949 235.08 77.7236L235.161 61.4048L235.924 60.6129C236.728 59.7798 238.037 59.5759 239.083 60.1215Z" fill="black"/>
</svg>
