<svg width="2231" height="267" viewBox="0 0 2231 267" fill="none" xmlns="http://www.w3.org/2000/svg">
<ellipse cx="1117.39" cy="54.977" rx="56.0293" ry="54.977" fill="white"/>
<ellipse cx="1194.52" cy="133.3" rx="56.0293" ry="54.977" fill="white"/>
<ellipse cx="1036.03" cy="133.3" rx="56.0293" ry="54.977" fill="white"/>
<ellipse cx="1114.7" cy="211.249" rx="56.0293" ry="54.977" fill="white"/>
<ellipse cx="1063.66" cy="192.795" rx="56.0293" ry="54.977" fill="white"/>
<ellipse cx="1167.28" cy="192.795" rx="56.0293" ry="54.977" fill="white"/>
<ellipse cx="1168.04" cy="73.0503" rx="56.0293" ry="54.977" fill="white"/>
<ellipse cx="1114.7" cy="133.3" rx="56.0293" ry="54.977" fill="white"/>
<ellipse cx="1063.66" cy="73.0503" rx="56.0293" ry="54.977" fill="white"/>
<circle cx="1088.67" cy="112.228" r="23.3423" fill="black"/>
<circle cx="1140.25" cy="112.228" r="23.3423" fill="black"/>
<circle cx="1130.99" cy="120.097" r="12.2504" fill="white"/>
<circle cx="1079.95" cy="120.097" r="12.2504" fill="white"/>
<circle cx="1115.11" cy="150.513" r="3.55542" fill="black"/>
<ellipse cx="2096.87" cy="54.977" rx="56.0293" ry="54.977" fill="white"/>
<ellipse cx="2174.01" cy="133.3" rx="56.0293" ry="54.977" fill="white"/>
<ellipse cx="2015.51" cy="133.3" rx="56.0293" ry="54.977" fill="white"/>
<ellipse cx="2094.18" cy="211.249" rx="56.0293" ry="54.977" fill="white"/>
<ellipse cx="2043.14" cy="192.796" rx="56.0293" ry="54.977" fill="white"/>
<ellipse cx="2146.76" cy="192.796" rx="56.0293" ry="54.977" fill="white"/>
<ellipse cx="2147.53" cy="73.0513" rx="56.0293" ry="54.977" fill="white"/>
<ellipse cx="2094.18" cy="133.3" rx="56.0293" ry="54.977" fill="white"/>
<ellipse cx="2043.14" cy="73.0513" rx="56.0293" ry="54.977" fill="white"/>
<circle cx="2074.22" cy="112.225" r="23.3423" fill="black"/>
<circle cx="2125.79" cy="112.225" r="23.3423" fill="black"/>
<circle cx="2126.22" cy="124.836" r="12.2504" fill="white"/>
<circle cx="2075.18" cy="124.836" r="12.2504" fill="white"/>
<circle cx="2100.65" cy="150.51" r="3.55542" fill="black"/>
<ellipse cx="137.387" cy="54.977" rx="56.0293" ry="54.977" fill="white"/>
<ellipse cx="214.523" cy="133.3" rx="56.0293" ry="54.977" fill="white"/>
<ellipse cx="56.0293" cy="133.3" rx="56.0293" ry="54.977" fill="white"/>
<ellipse cx="134.701" cy="211.249" rx="56.0293" ry="54.977" fill="white"/>
<ellipse cx="83.6602" cy="192.796" rx="56.0293" ry="54.977" fill="white"/>
<ellipse cx="187.276" cy="192.796" rx="56.0293" ry="54.977" fill="white"/>
<ellipse cx="188.044" cy="73.0513" rx="56.0293" ry="54.977" fill="white"/>
<ellipse cx="134.701" cy="133.3" rx="56.0293" ry="54.977" fill="white"/>
<ellipse cx="83.6602" cy="73.0513" rx="56.0293" ry="54.977" fill="white"/>
<circle cx="114.733" cy="112.225" r="23.3423" fill="black"/>
<circle cx="166.312" cy="112.225" r="23.3423" fill="black"/>
<circle cx="166.742" cy="124.836" r="12.2504" fill="white"/>
<circle cx="115.698" cy="124.836" r="12.2504" fill="white"/>
<circle cx="141.166" cy="150.51" r="3.55542" fill="black"/>
</svg>
