<svg width="3855" height="267" viewBox="0 0 3855 267" fill="none" xmlns="http://www.w3.org/2000/svg">
<ellipse cx="135.995" cy="54.9673" rx="55.4617" ry="54.9673" fill="white"/>
<ellipse cx="212.35" cy="133.276" rx="55.4617" ry="54.9673" fill="white"/>
<ellipse cx="55.4617" cy="133.276" rx="55.4617" ry="54.9673" fill="white"/>
<ellipse cx="133.336" cy="211.21" rx="55.4617" ry="54.9673" fill="white"/>
<ellipse cx="82.8123" cy="192.762" rx="55.4617" ry="54.9673" fill="white"/>
<ellipse cx="185.378" cy="192.762" rx="55.4617" ry="54.9673" fill="white"/>
<ellipse cx="186.138" cy="73.0376" rx="55.4617" ry="54.9673" fill="white"/>
<ellipse cx="133.336" cy="133.276" rx="55.4617" ry="54.9673" fill="white"/>
<ellipse cx="82.8123" cy="73.0376" rx="55.4617" ry="54.9673" fill="white"/>
<ellipse cx="107.258" cy="112.228" rx="23.5522" ry="23.3423" fill="black"/>
<ellipse cx="159.3" cy="112.228" rx="23.5522" ry="23.3423" fill="black"/>
<ellipse cx="170.807" cy="114.983" rx="12.3605" ry="12.2504" fill="white"/>
<ellipse cx="119.305" cy="114.983" rx="12.3605" ry="12.2504" fill="white"/>
<ellipse cx="133.929" cy="150.513" rx="3.5874" ry="3.55542" fill="black"/>
<ellipse cx="2527.09" cy="54.9673" rx="55.4617" ry="54.9673" fill="white"/>
<ellipse cx="2603.45" cy="133.276" rx="55.4617" ry="54.9673" fill="white"/>
<ellipse cx="2446.56" cy="133.276" rx="55.4617" ry="54.9673" fill="white"/>
<ellipse cx="2524.44" cy="211.21" rx="55.4617" ry="54.9673" fill="white"/>
<ellipse cx="2473.91" cy="192.762" rx="55.4617" ry="54.9673" fill="white"/>
<ellipse cx="2576.48" cy="192.762" rx="55.4617" ry="54.9673" fill="white"/>
<ellipse cx="2577.24" cy="73.0376" rx="55.4617" ry="54.9673" fill="white"/>
<ellipse cx="2524.44" cy="133.276" rx="55.4617" ry="54.9673" fill="white"/>
<ellipse cx="2473.91" cy="73.0376" rx="55.4617" ry="54.9673" fill="white"/>
<ellipse cx="2498.36" cy="112.228" rx="23.5522" ry="23.3423" fill="black"/>
<ellipse cx="2550.4" cy="112.228" rx="23.5522" ry="23.3423" fill="black"/>
<ellipse cx="2561.91" cy="114.983" rx="12.3605" ry="12.2504" fill="white"/>
<ellipse cx="2510.41" cy="114.983" rx="12.3605" ry="12.2504" fill="white"/>
<ellipse cx="2525.03" cy="150.513" rx="3.5874" ry="3.55542" fill="black"/>
<ellipse cx="3722.54" cy="54.9783" rx="55.4617" ry="54.9783" fill="white"/>
<ellipse cx="3798.9" cy="133.303" rx="55.4617" ry="54.9783" fill="white"/>
<ellipse cx="3642.01" cy="133.303" rx="55.4617" ry="54.9783" fill="white"/>
<ellipse cx="3719.89" cy="211.252" rx="55.4617" ry="54.9783" fill="white"/>
<ellipse cx="3669.36" cy="192.801" rx="55.4617" ry="54.9783" fill="white"/>
<ellipse cx="3771.93" cy="192.801" rx="55.4617" ry="54.9783" fill="white"/>
<ellipse cx="3772.69" cy="73.0525" rx="55.4617" ry="54.9783" fill="white"/>
<ellipse cx="3719.89" cy="133.303" rx="55.4617" ry="54.9783" fill="white"/>
<ellipse cx="3669.36" cy="73.0525" rx="55.4617" ry="54.9783" fill="white"/>
<ellipse cx="3693.81" cy="112.25" rx="23.5522" ry="23.347" fill="black"/>
<ellipse cx="3745.85" cy="112.25" rx="23.5522" ry="23.347" fill="black"/>
<ellipse cx="3757.36" cy="115.006" rx="12.3605" ry="12.2528" fill="white"/>
<ellipse cx="3705.86" cy="115.006" rx="12.3605" ry="12.2528" fill="white"/>
<ellipse cx="3720.48" cy="150.543" rx="3.5874" ry="3.55613" fill="black"/>
<ellipse cx="1331.54" cy="54.9673" rx="55.4617" ry="54.9673" fill="white"/>
<ellipse cx="1407.9" cy="133.276" rx="55.4617" ry="54.9673" fill="white"/>
<ellipse cx="1251.01" cy="133.276" rx="55.4617" ry="54.9673" fill="white"/>
<ellipse cx="1328.89" cy="211.21" rx="55.4617" ry="54.9673" fill="white"/>
<ellipse cx="1278.36" cy="192.762" rx="55.4617" ry="54.9673" fill="white"/>
<ellipse cx="1380.93" cy="192.762" rx="55.4617" ry="54.9673" fill="white"/>
<ellipse cx="1381.69" cy="73.0376" rx="55.4617" ry="54.9673" fill="white"/>
<ellipse cx="1328.89" cy="133.276" rx="55.4617" ry="54.9673" fill="white"/>
<ellipse cx="1278.36" cy="73.0376" rx="55.4617" ry="54.9673" fill="white"/>
<ellipse cx="1298.6" cy="112.229" rx="23.5522" ry="23.3423" fill="black"/>
<ellipse cx="1350.64" cy="112.229" rx="23.5522" ry="23.3423" fill="black"/>
<ellipse cx="1349.77" cy="99.9515" rx="12.3605" ry="12.2504" fill="white"/>
<ellipse cx="1298.27" cy="99.9515" rx="12.3605" ry="12.2504" fill="white"/>
<ellipse cx="1325.27" cy="150.514" rx="3.5874" ry="3.55542" fill="black"/>
</svg>
