<svg width="3858" height="267" viewBox="0 0 3858 267" fill="none" xmlns="http://www.w3.org/2000/svg">
<ellipse cx="2528.49" cy="54.977" rx="56.0293" ry="54.977" fill="white"/>
<ellipse cx="2605.63" cy="133.3" rx="56.0293" ry="54.977" fill="white"/>
<ellipse cx="2447.13" cy="133.3" rx="56.0293" ry="54.977" fill="white"/>
<ellipse cx="2525.8" cy="211.249" rx="56.0293" ry="54.977" fill="white"/>
<ellipse cx="2474.76" cy="192.795" rx="56.0293" ry="54.977" fill="white"/>
<ellipse cx="2578.38" cy="192.795" rx="56.0293" ry="54.977" fill="white"/>
<ellipse cx="2579.15" cy="73.0503" rx="56.0293" ry="54.977" fill="white"/>
<ellipse cx="2525.8" cy="133.3" rx="56.0293" ry="54.977" fill="white"/>
<ellipse cx="2474.76" cy="73.0503" rx="56.0293" ry="54.977" fill="white"/>
<circle cx="2499.78" cy="112.228" r="23.3423" fill="black"/>
<circle cx="2551.35" cy="112.228" r="23.3423" fill="black"/>
<circle cx="2542.1" cy="120.097" r="12.2504" fill="white"/>
<circle cx="2491.05" cy="120.097" r="12.2504" fill="white"/>
<circle cx="2526.21" cy="150.513" r="3.55542" fill="black"/>
<ellipse cx="137.387" cy="54.977" rx="56.0293" ry="54.977" fill="white"/>
<ellipse cx="214.522" cy="133.3" rx="56.0293" ry="54.977" fill="white"/>
<ellipse cx="56.0293" cy="133.3" rx="56.0293" ry="54.977" fill="white"/>
<ellipse cx="134.7" cy="211.249" rx="56.0293" ry="54.977" fill="white"/>
<ellipse cx="83.6592" cy="192.795" rx="56.0293" ry="54.977" fill="white"/>
<ellipse cx="187.276" cy="192.795" rx="56.0293" ry="54.977" fill="white"/>
<ellipse cx="188.043" cy="73.0503" rx="56.0293" ry="54.977" fill="white"/>
<ellipse cx="134.7" cy="133.3" rx="56.0293" ry="54.977" fill="white"/>
<ellipse cx="83.6592" cy="73.0503" rx="56.0293" ry="54.977" fill="white"/>
<circle cx="108.671" cy="112.228" r="23.3423" fill="black"/>
<circle cx="160.25" cy="112.228" r="23.3423" fill="black"/>
<circle cx="150.994" cy="120.097" r="12.2504" fill="white"/>
<circle cx="99.9501" cy="120.097" r="12.2504" fill="white"/>
<circle cx="135.105" cy="150.513" r="3.55542" fill="black"/>
<ellipse cx="3723.94" cy="54.977" rx="56.0293" ry="54.977" fill="white"/>
<ellipse cx="3801.07" cy="133.3" rx="56.0293" ry="54.977" fill="white"/>
<ellipse cx="3642.58" cy="133.3" rx="56.0293" ry="54.977" fill="white"/>
<ellipse cx="3721.25" cy="211.249" rx="56.0293" ry="54.977" fill="white"/>
<ellipse cx="3670.21" cy="192.795" rx="56.0293" ry="54.977" fill="white"/>
<ellipse cx="3773.83" cy="192.795" rx="56.0293" ry="54.977" fill="white"/>
<ellipse cx="3774.6" cy="73.0503" rx="56.0293" ry="54.977" fill="white"/>
<ellipse cx="3721.25" cy="133.3" rx="56.0293" ry="54.977" fill="white"/>
<ellipse cx="3670.21" cy="73.0503" rx="56.0293" ry="54.977" fill="white"/>
<circle cx="3695.22" cy="112.228" r="23.3423" fill="black"/>
<circle cx="3746.8" cy="112.228" r="23.3423" fill="black"/>
<circle cx="3737.55" cy="120.097" r="12.2504" fill="white"/>
<circle cx="3686.5" cy="120.097" r="12.2504" fill="white"/>
<circle cx="3721.66" cy="150.513" r="3.55542" fill="black"/>
<ellipse cx="1332.94" cy="54.977" rx="56.0293" ry="54.977" fill="white"/>
<ellipse cx="1410.07" cy="133.3" rx="56.0293" ry="54.977" fill="white"/>
<ellipse cx="1251.58" cy="133.3" rx="56.0293" ry="54.977" fill="white"/>
<ellipse cx="1330.25" cy="211.249" rx="56.0293" ry="54.977" fill="white"/>
<ellipse cx="1279.21" cy="192.796" rx="56.0293" ry="54.977" fill="white"/>
<ellipse cx="1382.83" cy="192.796" rx="56.0293" ry="54.977" fill="white"/>
<ellipse cx="1383.6" cy="73.0513" rx="56.0293" ry="54.977" fill="white"/>
<ellipse cx="1330.25" cy="133.3" rx="56.0293" ry="54.977" fill="white"/>
<ellipse cx="1279.21" cy="73.0513" rx="56.0293" ry="54.977" fill="white"/>
<circle cx="1310.28" cy="112.225" r="23.3423" fill="black"/>
<circle cx="1361.86" cy="112.225" r="23.3423" fill="black"/>
<circle cx="1362.29" cy="124.836" r="12.2504" fill="white"/>
<circle cx="1311.25" cy="124.836" r="12.2504" fill="white"/>
<circle cx="1336.72" cy="150.51" r="3.55542" fill="black"/>
</svg>
