<svg width="2234" height="267" viewBox="0 0 2234 267" fill="none" xmlns="http://www.w3.org/2000/svg">
<ellipse cx="135.995" cy="54.9673" rx="55.4617" ry="54.9673" fill="white"/>
<ellipse cx="212.35" cy="133.276" rx="55.4617" ry="54.9673" fill="white"/>
<ellipse cx="55.4617" cy="133.276" rx="55.4617" ry="54.9673" fill="white"/>
<ellipse cx="133.336" cy="211.21" rx="55.4617" ry="54.9673" fill="white"/>
<ellipse cx="82.8123" cy="192.762" rx="55.4617" ry="54.9673" fill="white"/>
<ellipse cx="185.378" cy="192.762" rx="55.4617" ry="54.9673" fill="white"/>
<ellipse cx="186.138" cy="73.0376" rx="55.4617" ry="54.9673" fill="white"/>
<ellipse cx="133.336" cy="133.276" rx="55.4617" ry="54.9673" fill="white"/>
<ellipse cx="82.8123" cy="73.0376" rx="55.4617" ry="54.9673" fill="white"/>
<ellipse cx="107.258" cy="112.228" rx="23.5522" ry="23.3423" fill="black"/>
<ellipse cx="159.3" cy="112.228" rx="23.5522" ry="23.3423" fill="black"/>
<ellipse cx="170.807" cy="114.983" rx="12.3605" ry="12.2504" fill="white"/>
<ellipse cx="119.305" cy="114.983" rx="12.3605" ry="12.2504" fill="white"/>
<ellipse cx="133.929" cy="150.513" rx="3.5874" ry="3.55542" fill="black"/>
<ellipse cx="2102" cy="54.9673" rx="55.4617" ry="54.9673" fill="white"/>
<ellipse cx="2178.35" cy="133.276" rx="55.4617" ry="54.9673" fill="white"/>
<ellipse cx="2021.46" cy="133.276" rx="55.4617" ry="54.9673" fill="white"/>
<ellipse cx="2099.34" cy="211.21" rx="55.4617" ry="54.9673" fill="white"/>
<ellipse cx="2048.81" cy="192.762" rx="55.4617" ry="54.9673" fill="white"/>
<ellipse cx="2151.38" cy="192.762" rx="55.4617" ry="54.9673" fill="white"/>
<ellipse cx="2152.14" cy="73.0376" rx="55.4617" ry="54.9673" fill="white"/>
<ellipse cx="2099.34" cy="133.276" rx="55.4617" ry="54.9673" fill="white"/>
<ellipse cx="2048.81" cy="73.0376" rx="55.4617" ry="54.9673" fill="white"/>
<ellipse cx="2073.26" cy="112.228" rx="23.5522" ry="23.3423" fill="black"/>
<ellipse cx="2125.3" cy="112.228" rx="23.5522" ry="23.3423" fill="black"/>
<ellipse cx="2136.81" cy="114.983" rx="12.3605" ry="12.2504" fill="white"/>
<ellipse cx="2085.31" cy="114.983" rx="12.3605" ry="12.2504" fill="white"/>
<ellipse cx="2099.93" cy="150.513" rx="3.5874" ry="3.55542" fill="black"/>
<ellipse cx="1119.18" cy="54.9673" rx="55.4617" ry="54.9673" fill="white"/>
<ellipse cx="1195.54" cy="133.276" rx="55.4617" ry="54.9673" fill="white"/>
<ellipse cx="1038.65" cy="133.276" rx="55.4617" ry="54.9673" fill="white"/>
<ellipse cx="1116.52" cy="211.21" rx="55.4617" ry="54.9673" fill="white"/>
<ellipse cx="1066" cy="192.762" rx="55.4617" ry="54.9673" fill="white"/>
<ellipse cx="1168.57" cy="192.762" rx="55.4617" ry="54.9673" fill="white"/>
<ellipse cx="1169.33" cy="73.0376" rx="55.4617" ry="54.9673" fill="white"/>
<ellipse cx="1116.52" cy="133.276" rx="55.4617" ry="54.9673" fill="white"/>
<ellipse cx="1066" cy="73.0376" rx="55.4617" ry="54.9673" fill="white"/>
<ellipse cx="1086.23" cy="112.229" rx="23.5522" ry="23.3423" fill="black"/>
<ellipse cx="1138.28" cy="112.229" rx="23.5522" ry="23.3423" fill="black"/>
<ellipse cx="1137.41" cy="99.9515" rx="12.3605" ry="12.2504" fill="white"/>
<ellipse cx="1085.91" cy="99.9515" rx="12.3605" ry="12.2504" fill="white"/>
<ellipse cx="1112.9" cy="150.514" rx="3.5874" ry="3.55542" fill="black"/>
</svg>
