<svg width="452" height="527" viewBox="0 0 452 527" fill="none" xmlns="http://www.w3.org/2000/svg">
<ellipse cx="229.526" cy="93.6057" rx="93.6057" ry="93.6057" fill="white"/>
<ellipse cx="358.394" cy="226.961" rx="93.6057" ry="93.6057" fill="white"/>
<ellipse cx="93.6059" cy="226.961" rx="93.6057" ry="93.6057" fill="white"/>
<ellipse cx="225.039" cy="359.677" rx="93.6057" ry="93.6057" fill="white"/>
<ellipse cx="139.768" cy="328.261" rx="93.6057" ry="93.6057" fill="white"/>
<ellipse cx="312.874" cy="328.261" rx="93.6057" ry="93.6057" fill="white"/>
<ellipse cx="314.156" cy="124.38" rx="93.6057" ry="93.6057" fill="white"/>
<ellipse cx="225.039" cy="226.961" rx="93.6057" ry="93.6057" fill="white"/>
<ellipse cx="139.768" cy="124.38" rx="93.6057" ry="93.6057" fill="white"/>
<rect x="239.038" y="403.322" width="39.9846" height="123.431" fill="black"/>
<rect x="179.931" y="403.322" width="39.9846" height="123.431" fill="black"/>
<rect x="333.785" y="337.276" width="39.1154" height="123.431" fill="black"/>
<rect x="77.3617" y="337.276" width="39.9846" height="123.431" fill="black"/>
<path d="M147.136 137.845C147.136 137.845 109.502 280.844 108.665 284.022C68.2995 273.399 44.1886 232.064 54.8119 191.698C65.4353 151.333 106.77 127.221 147.136 137.845Z" fill="black"/>
<path d="M307.419 137.839C307.419 137.839 345.041 280.842 345.878 284.019C386.244 273.399 410.358 232.066 399.738 191.7C389.118 151.333 347.785 127.219 307.419 137.839Z" fill="black"/>
<path d="M248.6 286.846C248.6 286.846 206.933 286.846 206.008 286.846C206.008 298.848 215.542 308.577 227.304 308.577C239.065 308.577 248.6 298.848 248.6 286.846Z" fill="black"/>
<circle cx="227.304" cy="265.549" r="6.51923" fill="black"/>
</svg>
